<?xml version="1.0" encoding="UTF-8"?>
<svg width="185px" height="64px" viewBox="0 0 185 64" version="1.1" xmlns="http://www.w3.org/2000/svg" xmlns:xlink="http://www.w3.org/1999/xlink">
    <title>volcano logo</title>
    <g id="Page-1" stroke="none" stroke-width="1" fill="none" fill-rule="evenodd">
        <g id="Extra-Large" transform="translate(-68.000000, -72.000000)" fill-rule="nonzero">
            <g id="volcano-logo" transform="translate(68.000000, 72.000000)">
                <path d="M167.183673,49.8285714 L147.989796,49.8285714 L143.581633,64 L131,64 L151.755102,0 L164.336735,0 L185,64 L171.77551,64 L167.183673,49.8285714 Z M150.928571,39.7714286 L164.704082,39.7714286 L158.183673,18.3771429 L157.357143,18.3771429 L150.928571,39.7714286 Z" id="a" fill="#606060"></path>
                <polygon id="v" fill="#606060" points="115.556701 46.9028571 116.020619 46.9028571 128.824742 0 142 0 122.515464 64 108.041237 64 88 0 102.195876 0"></polygon>
                <path d="M80.1836735,49.8285714 L60.9897959,49.8285714 L56.5816327,64 L44,64 L64.755102,0 L77.3367347,0 L98,64 L84.7755102,64 L80.1836735,49.8285714 Z M63.9285714,39.7714286 L77.7040816,39.7714286 L71.1836735,18.3771429 L70.3571429,18.3771429 L63.9285714,39.7714286 Z" id="a" fill="#606060"></path>
                <g id="l">
                    <polygon id="lambda-left-triangle" fill="#FF5E0A" points="23.9262864 64 4.25748194e-14 63.9958742 11.9631432 24.384"></polygon>
                    <polygon id="lambda-right-leg" fill="#606060" points="41.7770409 63.9968856 26.8508841 63.9968856 7.5 0 21.5978152 0"></polygon>
                </g>
            </g>
        </g>
    </g>
</svg>